<?xml version="1.0" encoding="utf-8"?>
<!-- Generator: Adobe Illustrator 16.0.0, SVG Export Plug-In . SVG Version: 6.00 Build 0)  -->
<!DOCTYPE svg PUBLIC "-//W3C//DTD SVG 1.1//EN" "http://www.w3.org/Graphics/SVG/1.1/DTD/svg11.dtd">
<svg version="1.1" id="Layer_1" xmlns="http://www.w3.org/2000/svg" xmlns:xlink="http://www.w3.org/1999/xlink" x="0px" y="0px"
	 width="100px" height="100px" viewBox="0 0 100 100" style="enable-background:new 0 0 100 100;" xml:space="preserve">
<path d="M70.141,83.374c-1.828,0-3.668-0.253-5.365-0.782c-6.603-2.058-9.7-6.947-9.211-14.535l0.017-0.267
	c0.045-0.785,0.687-1.373,1.501-1.337c0.781,0.048,1.379,0.719,1.333,1.5l-0.019,0.286c-0.162,2.518-0.594,9.206,7.225,11.644
	c4.47,1.393,10.479,0.443,12.863-2.029c3.516-3.65,4.707-7.869,3.645-12.896c-1.906-9.016-13.43-8.312-13.928-8.275l-55.557,0.004
	c-0.785,0-1.42-0.637-1.42-1.42c0-0.785,0.635-1.42,1.42-1.42H68.1c4.885-0.363,14.869,1.364,16.809,10.523
	c1.256,5.938-0.219,11.136-4.381,15.453C78.35,82.083,74.279,83.374,70.141,83.374z"/>
<path d="M66.844,49.459c-0.783,0-1.419-0.636-1.419-1.419c0-0.784,0.636-1.42,1.419-1.42h15.68c-0.02-0.001,5.802-0.378,8.047-4.384
	c1.41-2.512,2.562-7.726-0.036-11.792c-1.869-2.93-7.558-3.744-9.558-2.905c-2.105,0.884-3.736,2.601-4.472,4.711
	c-0.51,1.465-0.812,3.766,0.646,6.41c0.379,0.687,0.127,1.55-0.56,1.929c-0.688,0.375-1.549,0.129-1.929-0.559
	c-1.53-2.778-1.827-5.873-0.839-8.713c1-2.87,3.206-5.201,6.055-6.396c3.267-1.373,10.418-0.127,13.048,3.995
	c3.526,5.519,1.621,12.035,0.121,14.71c-3.02,5.382-10.146,5.816-10.447,5.832L66.844,49.459z"/>
<path d="M53.413,49.126c-0.022,0-0.04,0-0.05,0H6.711c-0.785,0-1.42-0.636-1.42-1.419c0-0.784,0.635-1.42,1.42-1.42h46.674
	c0.256-0.008,6.02-0.02,8.109-5.059c1.92-4.629,2.154-8.884,0.721-13.006c-1.507-4.331-8.32-5.353-11.557-4.692
	c-2.467,0.508-4.604,2.169-5.86,4.557c-1.239,2.356-1.396,5.024-0.428,7.318c0.305,0.723-0.033,1.555-0.756,1.86
	c-0.721,0.306-1.554-0.033-1.859-0.756c-1.301-3.081-1.106-6.632,0.529-9.744c1.654-3.143,4.498-5.336,7.803-6.017
	c4.776-0.984,12.806,0.78,14.81,6.541c1.676,4.811,1.42,9.726-0.778,15.028C61.361,48.954,54.146,49.126,53.413,49.126z"/>
</svg>
